<svg xmlns="http://www.w3.org/2000/svg" viewBox="0 0 42 42"><defs><style>.cls-1{fill:#d20f00;}.cls-2,.cls-5{opacity:0.15;}.cls-3{fill:#e2211b;}.cls-4{fill:#f1b08f;}.cls-5,.cls-7{fill:#a05c3f;}.cls-6{opacity:0.6;}.cls-8{fill:#b70000;}.cls-9{opacity:0.05;}.cls-10{fill:#c90900;}.cls-11{opacity:0.2;}.cls-12{fill:#ef362c;}.cls-13,.cls-14{opacity:0.1;}.cls-14,.cls-16{fill:#fff;}.cls-14{stroke:#b0b0b0;stroke-miterlimit:10;stroke-width:0.07px;}.cls-15{opacity:0.3;}.cls-17{opacity:0.8;}.cls-18{fill:#1a1a1a;}</style></defs><path id="BoutQueue" class="cls-1" d="M37,27.1s-1.22-1.83-1-2.16c.08-.15.7.32.7.32a6.67,6.67,0,0,1-.5-2.08,6.47,6.47,0,0,1,1.13-2.4,6.6,6.6,0,0,1,.94,2.48,6.89,6.89,0,0,1-.67,2s.66-.41.72-.26c.15.34-1.21,2.06-1.21,2.06Z"/><path id="OmbreBoutQueue" class="cls-2" d="M37,26.81s-.88-1.22-.74-1.46.64.24.64.24a9.93,9.93,0,0,1-.49-2.2,4.7,4.7,0,0,1,.87-1.77A4.81,4.81,0,0,1,38,23.47a12.1,12.1,0,0,1-.64,2.18s.63-.31.68-.2c.11.26-.93,1.36-.93,1.36Z"/><path id="Ecaille" class="cls-1" d="M17.83,12.49a1.68,1.68,0,0,1-.54,2.31c-.78.49-.39-.64-.88-1.43s-1.68-.93-.89-1.42A1.67,1.67,0,0,1,17.83,12.49Z"/><path id="Ecaille-2" data-name="Ecaille" class="cls-1" d="M20,11.5a1.68,1.68,0,0,1-.84,2.22c-.84.38-.31-.68-.69-1.53s-1.54-1.15-.69-1.53A1.68,1.68,0,0,1,20,11.5Z"/><path id="Ecaille-3" data-name="Ecaille" class="cls-1" d="M15.94,13.71a1.68,1.68,0,0,1-.09,2.37c-.69.63-.51-.55-1.14-1.23s-1.83-.61-1.14-1.24A1.68,1.68,0,0,1,15.94,13.71Z"/><path id="Ecaille-4" data-name="Ecaille" class="cls-1" d="M14.33,15.16a1.68,1.68,0,0,1,.21,2.37c-.59.71-.58-.48-1.29-1.08s-1.88-.37-1.29-1.08A1.69,1.69,0,0,1,14.33,15.16Z"/><path id="Ecaille-5" data-name="Ecaille" class="cls-1" d="M13,16.92a1.68,1.68,0,0,1,.38,2.34c-.54.75-.61-.44-1.36-1s-1.91-.23-1.37-1A1.68,1.68,0,0,1,13,16.92Z"/><path id="Ecaille-6" data-name="Ecaille" class="cls-1" d="M11.93,18.83a1.68,1.68,0,0,1,.73,2.26c-.43.83-.67-.34-1.5-.77s-1.91.06-1.49-.77A1.67,1.67,0,0,1,11.93,18.83Z"/><path id="Ecaille-7" data-name="Ecaille" class="cls-1" d="M11,20.84a1.68,1.68,0,0,1,1.14,2.08c-.26.89-.72-.21-1.61-.47s-1.87.41-1.61-.48A1.66,1.66,0,0,1,11,20.84Z"/><path id="Ecaille-8" data-name="Ecaille" class="cls-1" d="M10.62,23A1.69,1.69,0,0,1,12,25c-.16.91-.75-.13-1.66-.28s-1.81.64-1.66-.27A1.68,1.68,0,0,1,10.62,23Z"/><path id="Ecaille-9" data-name="Ecaille" class="cls-1" d="M10.47,25.41A1.68,1.68,0,0,1,12,27.2c-.07.93-.75-.05-1.68-.12s-1.74.81-1.68-.12A1.69,1.69,0,0,1,10.47,25.41Z"/><path id="Ecaille-10" data-name="Ecaille" class="cls-1" d="M10.5,27.62A1.69,1.69,0,0,1,12.44,29c.16.92-.74.13-1.65.29s-1.5,1.2-1.66.29A1.69,1.69,0,0,1,10.5,27.62Z"/><path id="Ecaille-11" data-name="Ecaille" class="cls-1" d="M11.09,30.12a1.67,1.67,0,0,1,2.25.74c.42.83-.67.34-1.5.76s-1.08,1.58-1.5.75A1.68,1.68,0,0,1,11.09,30.12Z"/><path id="Ecaille-12" data-name="Ecaille" class="cls-1" d="M12.64,32.53a1.69,1.69,0,0,1,2.32.54c.49.79-.64.4-1.43.89s-.94,1.67-1.43.88A1.68,1.68,0,0,1,12.64,32.53Z"/><path id="Ecaille-13" data-name="Ecaille" class="cls-1" d="M14.64,34.57A1.68,1.68,0,0,1,17,34.4c.7.61-.49.57-1.1,1.27s-.4,1.88-1.1,1.27A1.68,1.68,0,0,1,14.64,34.57Z"/><path id="Ecaille-14" data-name="Ecaille" class="cls-1" d="M17.25,36.13A1.68,1.68,0,0,1,19.62,36c.7.61-.49.57-1.1,1.27s-.4,1.88-1.1,1.27A1.69,1.69,0,0,1,17.25,36.13Z"/><path id="Ecaille-15" data-name="Ecaille" class="cls-1" d="M19.56,37.45a1.33,1.33,0,0,1,1.76-.67c.68.3-.24.54-.54,1.22s.13,1.52-.55,1.22A1.34,1.34,0,0,1,19.56,37.45Z"/><path id="Ecaille-16" data-name="Ecaille" class="cls-1" d="M22,38.16a1,1,0,0,1,1.14-.7c.51.12-.1.41-.22.92s.3,1-.21.92A1,1,0,0,1,22,38.16Z"/><path id="Ecaille-17" data-name="Ecaille" class="cls-1" d="M23.9,38.15a.94.94,0,0,1,1-.88c.52,0,0,.42-.07.94s.46,1-.06.94A.93.93,0,0,1,23.9,38.15Z"/><path id="Dos" class="cls-3" d="M26.68,13.05a10.85,10.85,0,0,1,2-2.07A14.67,14.67,0,0,0,10.35,25.19c0,8.1,6.57,13.48,14.67,13.48s13.17-6.81,12.15-14.44c-1,10-8.91,12.11-12.15,11.72-5.34-.64-9.92-4.82-9.3-10.76.58-5.44,4.34-9,9.3-9h.1A10.42,10.42,0,0,1,26.68,13.05Z"/><path id="OmbreDos" class="cls-1" d="M26.68,11.43C17.16,11.43,12,17.56,12,24.85c0,8.84,6.51,12.77,13,12.77,8,0,12.73-8.69,12.15-13.39-1,10-8.91,12.11-12.15,11.72-5.34-.64-9.92-4.82-9.3-10.76.58-5.44,4.34-9,9.3-9h.1C25.46,15.06,26,12.38,26.68,11.43Z"/><path id="Ventre" class="cls-4" d="M36.38,28C34,34.27,28.25,34.88,25,34.61a9.17,9.17,0,0,1-8.41-9.42c0-5,4-9,8.41-9h.1a10.42,10.42,0,0,1,1.56-3.15A11.28,11.28,0,0,0,25,12.93c-5.7,0-11.32,5.49-11.32,12.26A11.15,11.15,0,0,0,25,36.53C30.27,36.53,35.23,32.85,36.38,28Z"/><path id="OmbreVentre" class="cls-5" d="M36.38,28C34,34.27,28.25,34.88,25,34.61a9.17,9.17,0,0,1-8.41-9.42c0-5,4-9,8.41-9h.1a10.39,10.39,0,0,1,.59-1.52c-4.06-.18-10.5,3.74-10.5,10.51A10,10,0,0,0,25,35.55C31.26,35.55,35.41,32.28,36.38,28Z"/><g class="cls-6"><path class="cls-7" d="M34.55,31.45a.42.42,0,0,0-.07-.15,0,0,0,0,0,0,0l-.16.18.08,0A.27.27,0,0,0,34.55,31.45Z"/><path class="cls-7" d="M33,33.07a2.66,2.66,0,0,1-.28-.23l-.23.16a.46.46,0,0,0,.24.12A.37.37,0,0,0,33,33.07Z"/><path class="cls-7" d="M30.55,34.46a.73.73,0,0,0,.4.13,3.37,3.37,0,0,1-.47-.57l0,0-.26.08.06.11A.92.92,0,0,0,30.55,34.46Z"/><path class="cls-7" d="M27.91,35.09a1.34,1.34,0,0,0,.39.36,6,6,0,0,1-.35-.9l-.27,0v0A1.45,1.45,0,0,0,27.91,35.09Z"/><path class="cls-7" d="M25,35.31a1.34,1.34,0,0,0,.25.54,5.28,5.28,0,0,1,0-1.12.45.45,0,0,1,0-.11H25s0,.07,0,.11A1.72,1.72,0,0,0,25,35.31Z"/><path class="cls-7" d="M22,34.85a1.82,1.82,0,0,0,.07.7,4.91,4.91,0,0,1,.35-1.29l.11-.22L22.27,34a1.28,1.28,0,0,0-.11.2A2.13,2.13,0,0,0,22,34.85Z"/><path class="cls-7" d="M19.49,33.56a2.27,2.27,0,0,0,0,.82A5.08,5.08,0,0,1,20,32.92l.13-.18L20,32.57l-.15.21A2.43,2.43,0,0,0,19.49,33.56Z"/><path class="cls-7" d="M17.41,31.57a2.34,2.34,0,0,0-.3.85,4.94,4.94,0,0,1,1.05-1.37l.22-.18-.15-.21-.25.19A2.63,2.63,0,0,0,17.41,31.57Z"/><path class="cls-7" d="M15.86,29.1a2.36,2.36,0,0,0-.5.85,4.35,4.35,0,0,1,.65-.7,3.3,3.3,0,0,1,.76-.52l.41-.17-.09-.24a2.35,2.35,0,0,0-.44.17A2.62,2.62,0,0,0,15.86,29.1Z"/><path class="cls-7" d="M15.15,26.33a2.7,2.7,0,0,0-.83.58,5.73,5.73,0,0,1,1.85-.6,4,4,0,0,1,.49,0,2.28,2.28,0,0,0,0-.26,4.1,4.1,0,0,0-.5,0A3.33,3.33,0,0,0,15.15,26.33Z"/><path class="cls-7" d="M15.24,23.48a2.89,2.89,0,0,0-1,.28,6.12,6.12,0,0,1,1.91,0,2.8,2.8,0,0,1,.5.12c0-.08,0-.17,0-.25a2.85,2.85,0,0,0-.5-.14A3.35,3.35,0,0,0,15.24,23.48Z"/><path class="cls-7" d="M16,20.87A2.73,2.73,0,0,0,15,21a4.9,4.9,0,0,1,1.88.34c.15.06.28.14.42.21l0,0,.1-.24a4.76,4.76,0,0,0-.45-.24A3,3,0,0,0,16,20.87Z"/><path class="cls-7" d="M17.45,18.64a2.87,2.87,0,0,0-1.09-.14,6.78,6.78,0,0,1,1,.34,4.22,4.22,0,0,1,.9.52,2.65,2.65,0,0,1,.26.21l.16-.2a1.38,1.38,0,0,0-.26-.22A3.11,3.11,0,0,0,17.45,18.64Z"/><path class="cls-7" d="M19.5,16.77a3.28,3.28,0,0,0-.52-.2l-.27-.07-.14,0s-.1,0-.13,0,.08.05.12.08l.12.06.25.12a4.39,4.39,0,0,1,.47.27,3.83,3.83,0,0,1,.83.66l.14.16.22-.15a1.46,1.46,0,0,0-.16-.19A3.07,3.07,0,0,0,19.5,16.77Z"/></g><g id="Tete"><path class="cls-2" d="M22,13.54c-1.92-.28-2-.44-2-.44a4.84,4.84,0,0,0,.87-1.75c.12-.51,1.12-.51,1.42-.46C22.32,10.89,23.9,13.82,22,13.54Z"/><path class="cls-8" d="M22.17,13.54c-1.92-.28-2-.44-2-.44a4.51,4.51,0,0,0,.84-1.75c.24-1.14,1-1.15,1.28-1.1a1.9,1.9,0,0,1,1.5,1C23.91,11.31,24.08,13.82,22.17,13.54Z"/><path class="cls-3" d="M28.35,17.37c-.11.43-4.72.89-5.92-.31s-1.32-3.87-1.32-3.87a12.06,12.06,0,0,0,3.23.32S28.46,17,28.35,17.37Z"/><path class="cls-2" d="M27.48,17.3c-.11.43-5,0-6.93-1.26a2.17,2.17,0,0,1-1-2.93,12.57,12.57,0,0,0,3.23.33S27.59,16.87,27.48,17.3Z"/><path class="cls-1" d="M27.63,17.15c-.11.42-5,0-6.93-1.27a2.16,2.16,0,0,1-1-2.92,12.09,12.09,0,0,0,3.23.32S27.74,16.72,27.63,17.15Z"/><path class="cls-9" d="M27.63,17.15c-.11.42-5,0-6.93-1.27a2.16,2.16,0,0,1-1-2.92,12.09,12.09,0,0,0,3.23.32S27.74,16.72,27.63,17.15Z"/><path class="cls-2" d="M23.81,13.41c-2.24.39-2.88-.23-2.88-.23a4.82,4.82,0,0,0,1.14-2.39c.22-1.65,2.76-1.82,3.77-.41A2.29,2.29,0,0,1,23.81,13.41Z"/><path class="cls-10" d="M23.93,13.61c-2.74-.21-2.82-.42-2.82-.42a6.38,6.38,0,0,0,1-2.57C22.35,9,23.4,8.9,23.84,8.94a2.65,2.65,0,0,1,2.22,1.31C26.18,10.28,26.66,13.82,23.93,13.61Z"/><path class="cls-3" d="M24.2,9.05C23.33,8,21,4.93,21.6,3.4s2.8-.35,2.2,1A1,1,0,0,1,22.41,5s.68,2.07,1.26,2.38.71-.48-.29-1.34c.57,0,2,1.26.75,1.91-.05.14.7.91.7.91"/><g class="cls-11"><path d="M24.83,8.85s-.75-.77-.7-.91-.8.08.07,1.11Z"/></g><path class="cls-1" d="M26.21,8.74c-.41-.76-1.45-3-.89-3.85s1.79.16,1.25.89a.66.66,0,0,1-.95.2s.16,1.37.48,1.65.5-.2,0-.88c.36,0,1.1,1.06.22,1.3,0,.07.32.65.32.65"/><g class="cls-11"><path d="M26.21,8.74a12,12,0,0,1-.6-1.29c0-.15.18-.45.31-.11a.72.72,0,0,0,.18.29c.14.12.24.12.29,0s.28.13.24.2a.69.69,0,0,1-.32.18c0,.07.32.65.32.65"/></g><path class="cls-2" d="M24.15,11.61a4.7,4.7,0,0,1-2.78-1c-1.18-1,2.33-.5,3.37-.13Z"/><path class="cls-12" d="M24,11.41A10,10,0,0,1,20.26,9.9c-1.18-1-.92-2.92-.59-3.05s3.93,3,5,3.38Z"/><path class="cls-1" d="M24.15,11.19a8.77,8.77,0,0,1-3.6-1.58c-.75-.67-.7-1.89-.48-2s2.75,1.87,4.43,2.85Z"/><path class="cls-13" d="M22.7,13A6.76,6.76,0,0,0,24,9.73q-.22.79-.57,1.68C23.18,12,22.94,12.54,22.7,13Z"/><path class="cls-14" d="M35.64,13.44a45.14,45.14,0,0,1-4.53,1.83c-1,.22-4,.67-4,.67l-1.2-1.69L26,13l4.51-1.57,1.72-.5Z"/><path class="cls-1" d="M35.64,13.44a45.14,45.14,0,0,1-4.53,1.83c-1,.22-4.5.35-4.5.35L26,13,32.27,11Z"/><path class="cls-15" d="M35.64,13.44a45.14,45.14,0,0,1-4.53,1.83c-1,.22-4.5.35-4.5.35L26,13,32.27,11Z"/><path class="cls-13" d="M31.3,11.38s-4.88,2.1-4.91,2.19-.13.48,0,.48a7.2,7.2,0,0,0,5.15-1.86,1,1,0,0,1-.1.77s0,.06,0,.06c.47,0,.82-.54.82-.54a5.23,5.23,0,0,1,2.61,1.27l.43-.19C34.54,12.56,31.3,11.38,31.3,11.38Z"/><path class="cls-16" d="M35,14.5c.11-.15.34-.46.29-.65s-.39-.93-2.78-1.59c0,0-.35.57-.82.53,0,0-.06,0,0-.06a1,1,0,0,0,.11-.76,7.26,7.26,0,0,1-5.16,1.85c-.16,0-.5-.11-.47-.2s5.36-2.47,5.36-2.47,3.86,1.41,4.23,2.46a.78.78,0,0,1-.67,1S34.93,14.54,35,14.5Z"/><path class="cls-13" d="M35,14.5c.11-.15.34-.46.29-.65s-.39-.93-2.78-1.59c0,0-.35.57-.82.53,0,0-.06,0,0-.06a1,1,0,0,0,.11-.76,2.92,2.92,0,0,0-.19-.64c.27,0,3.3,1.12,4.22,2.36.09.39-.42.9-.74.9C35,14.59,34.93,14.54,35,14.5Z"/><path class="cls-13" d="M31.22,13.56a0,0,0,0,0-.06,0,3.55,3.55,0,0,1-.36.94,6.7,6.7,0,0,1-3.67.6,9.42,9.42,0,0,0,4,.38C31.85,15.77,31.59,13.78,31.22,13.56Z"/><path class="cls-16" d="M34.21,15.77c0,.17,0,.51-.18.64a3.25,3.25,0,0,0-.59-.58,5.59,5.59,0,0,0-1.8-1s0-1-.34-1.24a.05.05,0,0,0-.07,0,3.23,3.23,0,0,1-.36.94,6.7,6.7,0,0,1-3.67.6,9.49,9.49,0,0,0,4,.38A4.6,4.6,0,0,1,34,17.29c.11.14.7-.77.28-1.53C34.24,15.74,34.21,15.73,34.21,15.77Z"/><path class="cls-13" d="M34.21,15.77c0,.17,0,.51-.18.64a3.25,3.25,0,0,0-.59-.58,5.59,5.59,0,0,0-1.8-1s0-1-.34-1.24c0,0-.09,0-.07,0,.38.49-.4,1.48-.09,1.93A4.81,4.81,0,0,1,34,17.31c.11.14.66-.79.24-1.55C34.24,15.74,34.21,15.73,34.21,15.77Z"/><path class="cls-1" d="M31.54,11.33a7.11,7.11,0,0,1-5,2.2c-3.33.17-3.87-.5-3.87-.5a7.73,7.73,0,0,0,1.23-3.09C24.2,8,25.1,7,28.67,9.49a8.42,8.42,0,0,0,3.19.61C33.47,10.24,31.54,11.33,31.54,11.33Z"/><path class="cls-2" d="M22.72,13.08s-1.2,3.36.92,4.53c3.11,1.05,8.77,1.15,10,.61C33.67,18.21,24.26,13.41,22.72,13.08Z"/><path class="cls-3" d="M34.23,17.13A6.48,6.48,0,0,0,31.09,15a6.86,6.86,0,0,1-3.46.16,1.34,1.34,0,0,1-1.05-1.59,17.3,17.3,0,0,1-3.87-.5A6.67,6.67,0,0,0,23,16.77h0A2.45,2.45,0,0,0,24.23,18c3.11,1,8.54.78,9.77.24,0,0,.17-.07.19-.14A2.56,2.56,0,0,0,34.23,17.13Z"/><path class="cls-12" d="M34.23,17.13A6.48,6.48,0,0,0,31.09,15a1.65,1.65,0,0,1-.37,1.23l3.38,2a.19.19,0,0,0,.09-.09A2.34,2.34,0,0,0,34.23,17.13Z"/><path class="cls-11" d="M26.6,9a6.73,6.73,0,0,1,2.11,1.3c.19.18,1,.27,1.1.43s-.78.42-1,.32a4.53,4.53,0,0,0-3.87-1.78c-.16,0,.6-.83,1.66-.49C26.71,8.8,26.6,9,26.6,9Z"/><g class="cls-17"><path class="cls-18" d="M25.08,10.73a1.42,1.42,0,0,1,.63-.44,1.47,1.47,0,0,1,1.52.31,2.55,2.55,0,0,1,.26.3,3.59,3.59,0,0,1,.17.34c-.11-.07-.2-.15-.3-.22l-.15-.1-.15-.09-.15-.09-.15-.06a.76.76,0,0,0-.16-.06l-.16,0a2.07,2.07,0,0,0-.66,0A3.75,3.75,0,0,0,25.08,10.73Z"/></g><path class="cls-1" d="M30.72,16.19s-1.4,1.56-7.76.58A2.45,2.45,0,0,0,24.23,18c3.21,1.07,8.93.75,9.87.19A8.72,8.72,0,0,0,30.72,16.19Z"/><path class="cls-9" d="M31.86,10.1l-.53,0a1.76,1.76,0,0,0,.21,1.27C31.66,11.26,33.41,10.23,31.86,10.1Z"/><path class="cls-12" d="M31.54,11.33c3.2,1.07,4.22,2.36,4.22,2.36s1.51-.29,1.05-1.6c-.23-.67-1.26.31-4-2.77C32,8.49,31.06,10.25,31.54,11.33Z"/><path class="cls-1" d="M32.89,10.86c.28-.23-.23-.71-.51-.46-.44.37-.58-.58-.21-.65.62-.1,1.4,1,2.67,1.9.87.6,1.58.45,1.77.87s-.33.62-.35.44c0-.72-.57-.49-.58-.27s.49.38.15.52c-.12,0-.77-.7-1.61-1.21s-1.84-.65-1.94-.89C32.09,10.65,32.72,11,32.89,10.86Z"/></g><g id="Aile"><path class="cls-13" d="M10.9,21.2a3.31,3.31,0,0,1,1.19-.58l0-.14-.93-.22S11,20.73,10.9,21.2Z"/><path class="cls-1" d="M1.69,17.52c.09.19.24.15.75.2a5.83,5.83,0,0,1,5,4c.22.19.33-.1.71-.45a4.74,4.74,0,0,1,3.93-.61,13.86,13.86,0,0,1,.94-2.3s-4.26-3.07-4.66-4.85c-.13-.57,0-2-1.05-1.81.45.21.6.48-.11,1.18C4.58,15.39,1.42,16.91,1.69,17.52Z"/><path class="cls-3" d="M13,18.32s-.42-.31-1-.78c-1.29-1-3.37-2.85-3.65-4.07-.13-.57,0-2-1.05-1.81.45.21.6.48-.11,1.18C7.47,16.18,13,18.32,13,18.32Z"/><path class="cls-13" d="M3.94,17l3.53-1.67a.1.1,0,0,1,.15.09l.08,4.21a.1.1,0,0,1-.18.06A5.48,5.48,0,0,0,5.92,18a9.2,9.2,0,0,0-2-.84A.1.1,0,0,1,3.94,17Z"/><path class="cls-9" d="M7.47,15.32a.1.1,0,0,1,.15.09l.08,4.21a.1.1,0,0,1-.18.06A5.48,5.48,0,0,0,5.92,18C7.59,16.57,7.47,15.32,7.47,15.32Z"/><path class="cls-13" d="M8.92,20l1.27-1.5a.22.22,0,0,1,.29,0L12,19.52a.08.08,0,0,1-.06.15,5.57,5.57,0,0,0-1.47,0A11.64,11.64,0,0,0,9,20.15.1.1,0,0,1,8.92,20Z"/><path class="cls-9" d="M10.19,18.5a.22.22,0,0,1,.29,0L12,19.52a.08.08,0,0,1-.06.15,5.57,5.57,0,0,0-1.47,0A1.2,1.2,0,0,0,10.19,18.5Z"/></g></svg>
